<svg id="guarida-grupo-logotipo" xmlns="http://www.w3.org/2000/svg" width="111.94" height="13.975"
     viewBox="0 0 111.94 13.975">
    <g id="Camada_1">
        <path id="Caminho_727"
              d="M5.53,19.016H6.911v2.645a5.316,5.316,0,0,1-1.508.844,5.084,5.084,0,0,1-1.7.29,3.524,3.524,0,0,1-1.858-.512A3.8,3.8,0,0,1,0,19.016a4.115,4.115,0,0,1,.512-2.051A3.621,3.621,0,0,1,1.9,15.556a3.786,3.786,0,0,1,1.932-.507,3.249,3.249,0,0,1,1.081.189,3.435,3.435,0,0,1,.958.528,3.634,3.634,0,0,1,.757.807l-.4.29a6.493,6.493,0,0,0-.609-.7,2.322,2.322,0,0,0-.658-.456,1.88,1.88,0,0,0-.823-.179,2.767,2.767,0,0,0-1.152.235,2.212,2.212,0,0,0-.848.683,3.048,3.048,0,0,0-.494,1.073,5.455,5.455,0,0,0-.165,1.434,4.773,4.773,0,0,0,.272,1.681,2.676,2.676,0,0,0,.861,1.23,2.169,2.169,0,0,0,1.4.456,2.6,2.6,0,0,0,.92-.165,1.274,1.274,0,0,0,.6-.407Z"
              transform="translate(0.003 -12.572)" fill="#243f71"/>
        <path id="Caminho_728"
              d="M49.737,36.07H48.73V31.18h2.12a1.675,1.675,0,0,1,.737.165,1.277,1.277,0,0,1,.525.458,1.246,1.246,0,0,1,.2.693,1.1,1.1,0,0,1-.242.777,2.122,2.122,0,0,1-.8.423l1.307,2.375H51.408L50.2,33.627h.115q.988,0,.988-1.1a1.006,1.006,0,0,0-.252-.7,1.055,1.055,0,0,0-.823-.281h-.49Z"
              transform="translate(-40.709 -26.048)" fill="#243f71"/>
        <path id="Caminho_729"
              d="M76.3,31.19h1v3.488a1.035,1.035,0,0,0,.15.583.785.785,0,0,0,.369.313,1.162,1.162,0,0,0,.466.1.943.943,0,0,0,.782-.354,1.6,1.6,0,0,0,.277-1.006V31.19h.469V34.6a1.6,1.6,0,0,1-.23.882,1.4,1.4,0,0,1-.607.543,1.885,1.885,0,0,1-.841.176,2.431,2.431,0,0,1-1.277-.341,1.414,1.414,0,0,1-.558-1.317Z"
              transform="translate(-63.741 -26.056)" fill="#243f71"/>
        <path id="Caminho_730"
              d="M106.406,38.312H105.4V31.179h1.625a2.925,2.925,0,0,1,1.384.329,2.344,2.344,0,0,1,1.3,2.125,2.481,2.481,0,0,1-.624,1.811,2.265,2.265,0,0,1-1.7.637H106.4Zm0-6.77v4.163h.716a1.317,1.317,0,0,0,.8-.23,1.355,1.355,0,0,0,.464-.658,2.892,2.892,0,0,0,.15-.978,4.444,4.444,0,0,0-.127-1.1,1.692,1.692,0,0,0-.532-.854,1.756,1.756,0,0,0-1.192-.352Z"
              transform="translate(-88.051 -26.047)" fill="#243f71"/>
        <path id="Caminho_731"
              d="M136.518,30.47a2.278,2.278,0,0,1,.945.2,2.877,2.877,0,0,1,.823.569,2.717,2.717,0,0,1,.555.823,2.419,2.419,0,0,1,.2.963,2.963,2.963,0,0,1-.165,1.017,2.3,2.3,0,0,1-.494.823,2.192,2.192,0,0,1-.8.543,2.8,2.8,0,0,1-1.055.188,2.3,2.3,0,0,1-1.231-.357,2.657,2.657,0,0,1-.94-.946,2.443,2.443,0,0,1-.36-1.262,2.945,2.945,0,0,1,.165-1.012,2.416,2.416,0,0,1,.505-.823,2.128,2.128,0,0,1,.792-.54,2.8,2.8,0,0,1,1.053-.184m0,.36a.988.988,0,0,0-.658.265,1.908,1.908,0,0,0-.492.774,3.364,3.364,0,0,0-.189,1.167,3.28,3.28,0,0,0,.189,1.164,1.88,1.88,0,0,0,.5.774.93.93,0,0,0,1.3,0,1.878,1.878,0,0,0,.494-.774,3.279,3.279,0,0,0,.191-1.164,3.363,3.363,0,0,0-.184-1.167,1.9,1.9,0,0,0-.494-.772.973.973,0,0,0-.65-.265"
              transform="translate(-111.943 -25.455)" fill="#243f71"/>
        <path id="Caminho_732"
              d="M613.752,2.21h-3.42L606.12,14.485h1.764l1.2-3.586h4.075l1.332,3.586h3.8Zm-2.634,7.045h-1.491l1.411-4.281h.023l.064.181,1.493,4.1Z"
              transform="translate(-506.356 -1.846)" fill="#243f71" fill-rule="evenodd"/>
        <path id="Caminho_733"
              d="M542.016,6a6.134,6.134,0,0,0-1.379-2.041A6.564,6.564,0,0,0,538.549,2.7a7.447,7.447,0,0,0-2.176-.428,2.546,2.546,0,0,0-.431-.023H530.58V14.521h5.925a6.444,6.444,0,0,0,2.3-.388A5.364,5.364,0,0,0,540.734,13a4.732,4.732,0,0,0,1.29-1.83,6.531,6.531,0,0,0,.476-2.561,6.928,6.928,0,0,0-.476-2.6m-3.44,3.919a5.845,5.845,0,0,1-.634,1.562,3.385,3.385,0,0,1-1.113,1.085,1.607,1.607,0,0,1-.454.207,3,3,0,0,1-1.127.179h-1.251v-9.2h1.111a3.714,3.714,0,0,1,1.267.225,2.635,2.635,0,0,1,.693.364,3.629,3.629,0,0,1,1.271,1.567,5.29,5.29,0,0,1,.431,2.2,8.014,8.014,0,0,1-.2,1.811"
              transform="translate(-443.25 -1.881)" fill="#243f71" fill-rule="evenodd"/>
        <path id="Caminho_734"
              d="M423.395,9.23a4.622,4.622,0,0,0,1.47-.658,3.642,3.642,0,0,0,1.021-1.152,3.3,3.3,0,0,0,.385-1.567,3.215,3.215,0,0,0-.637-1.926,4.321,4.321,0,0,0-1.626-1.269,5.224,5.224,0,0,0-2.059-.448H415.83V14.485h3.419V3.657h1.271a2.159,2.159,0,0,1,1.58.611,2.212,2.212,0,0,1,.637,1.656,2.422,2.422,0,0,1-.384,1.45,1.764,1.764,0,0,1-.988.676,5.827,5.827,0,0,1-1.557.181h-.383l4.806,7.589h3.443Z"
              transform="translate(-347.387 -1.846)" fill="#243f71" fill-rule="evenodd"/>
        <rect id="Retângulo_60" width="3.42" height="12.275"
              transform="translate(81.054 0.364)" fill="#243f71"/>
        <path id="Caminho_735"
              d="M190.172,2.8l-1.606,1.3a10.887,10.887,0,0,0-.932-1.43,3.456,3.456,0,0,0-1.04-.881,2.963,2.963,0,0,0-1.4-.3,2.633,2.633,0,0,0-1.542.4,3.348,3.348,0,0,0-.988,1.16,6.22,6.22,0,0,0-.494,1.587A8.9,8.9,0,0,0,182,6.4a8.972,8.972,0,0,0,.165,1.766,5.826,5.826,0,0,0,.494,1.562,3,3,0,0,0,.988,1.132,2.633,2.633,0,0,0,1.542.435,5.178,5.178,0,0,0,1.7-.252c.543-.165.815-.407.815-.772V7.928h-2.492V7.2h5.8V10.92a9.417,9.417,0,0,1-1.317.856,8.742,8.742,0,0,1-1.481.635,11.2,11.2,0,0,1-1.646.426,10.642,10.642,0,0,1-1.769.142,7.367,7.367,0,0,1-2.578-.454,6.07,6.07,0,0,1-2.084-1.36,5.761,5.761,0,0,1-1.381-2.084,7,7,0,0,1-.479-2.582,6.671,6.671,0,0,1,.838-3.353,5.866,5.866,0,0,1,2.332-2.3A7,7,0,0,1,184.813,0a6.457,6.457,0,0,1,3.149.658,6.849,6.849,0,0,1,2.219,2.148"
              transform="translate(-148.931 0.001)" fill="#243f71" fill-rule="evenodd"/>
        <path id="Caminho_736"
              d="M340.9,2.21H337.48l-4.21,12.275h1.766l1.2-3.586h4.08l1.335,3.58h3.8Zm-2.634,7.045h-1.495l1.4-4.279h.025l.066.181,1.5,4.1Z"
              transform="translate(-278.415 -1.846)" fill="#243f71" fill-rule="evenodd"/>
        <path id="Caminho_737"
              d="M275.7,2.21h1.787v8.513a4.409,4.409,0,0,1-.474,2.064,3.786,3.786,0,0,1-1.583,1.493,6.479,6.479,0,0,1-2.831.546,5.733,5.733,0,0,1-2.02-.341,4.257,4.257,0,0,1-1.539-.953,3.728,3.728,0,0,1-.953-1.363,4.037,4.037,0,0,1-.314-1.6V2.21h3.419v8.23a2.345,2.345,0,0,0,.593,1.738,2.079,2.079,0,0,0,1.7.658,2.05,2.05,0,0,0,1.672-.64,2.688,2.688,0,0,0,.545-1.761Z"
              transform="translate(-223.696 -1.846)" fill="#243f71" fill-rule="evenodd"/>
        <path id="Caminho_738"
              d="M604.005,1.75a1.207,1.207,0,1,0,.859.351,1.2,1.2,0,0,0-.859-.351m0,2.273a1.065,1.065,0,1,1,1.07-1.065,1.065,1.065,0,0,1-1.07,1.065"
              transform="translate(-503.591 -1.462)" fill="#243f71" fill-rule="evenodd"/>
        <path id="Caminho_739"
              d="M606.7,5.69h-.4V4.25h.727a.659.659,0,0,1,.242.051.588.588,0,0,1,.2.148.4.4,0,0,1,.074.23.375.375,0,0,1-.043.178.449.449,0,0,1-.123.138.57.57,0,0,1-.175.074l.438.77h-.472l-.435-.886h.044a.675.675,0,0,0,.186-.023.191.191,0,0,0,.117-.077.3.3,0,0,0,.044-.165.254.254,0,0,0-.263-.262H606.7Z"
              transform="translate(-506.507 -3.55)" fill="#243f71"/>
        <rect id="Retângulo_61" width="21.117" height="0.635"
              transform="translate(3.187 12.089)" fill="#243f71"/>
        <rect id="Retângulo_62" width="3.21" height="0.658" transform="translate(3.692 6.376)"
              fill="#243f71"/>
    </g>
</svg>
