<svg xmlns="http://www.w3.org/2000/svg" width="18.023" height="18.023" viewBox="0 0 18.023 18.023">
    <path id="linkedin"
          d="M16.736,32H1.283A1.293,1.293,0,0,0,0,33.3V48.724a1.293,1.293,0,0,0,1.283,1.3H16.736a1.3,1.3,0,0,0,1.287-1.3V33.3A1.3,1.3,0,0,0,16.736,32ZM5.447,47.449H2.776v-8.6H5.451v8.6ZM4.112,37.673A1.549,1.549,0,1,1,5.66,36.124,1.55,1.55,0,0,1,4.112,37.673Zm11.349,9.776H12.789V43.265c0-1-.02-2.281-1.388-2.281-1.392,0-1.605,1.086-1.605,2.209v4.256H7.125v-8.6H9.688v1.175h.036a2.814,2.814,0,0,1,2.531-1.388c2.7,0,3.206,1.782,3.206,4.1Z"
          transform="translate(0 -32)" fill="#243f71"/>
</svg>
