<svg xmlns="http://www.w3.org/2000/svg" width="18.46" height="14.993" viewBox="0 0 18.46 14.993">
    <path id="twitter"
          d="M16.562,51.818c.012.164.012.328.012.492A10.69,10.69,0,0,1,5.81,63.075,10.691,10.691,0,0,1,0,61.376a7.826,7.826,0,0,0,.914.047,7.577,7.577,0,0,0,4.7-1.616,3.79,3.79,0,0,1-3.537-2.624,4.771,4.771,0,0,0,.715.059,4,4,0,0,0,1-.129A3.784,3.784,0,0,1,.75,53.4v-.047a3.81,3.81,0,0,0,1.71.48,3.789,3.789,0,0,1-1.171-5.06,10.754,10.754,0,0,0,7.8,3.959A4.271,4.271,0,0,1,9,51.865a3.787,3.787,0,0,1,6.548-2.589,7.449,7.449,0,0,0,2.4-.914,3.773,3.773,0,0,1-1.663,2.085,7.584,7.584,0,0,0,2.179-.586A8.132,8.132,0,0,1,16.562,51.818Z"
          transform="translate(0 -48.082)" fill="#243f71"/>
</svg>
