<svg xmlns="http://www.w3.org/2000/svg" width="22.296" height="15.677" viewBox="0 0 22.296 15.677">
    <path id="youtube"
          d="M36.763,66.453a2.8,2.8,0,0,0-1.971-1.984C33.053,64,26.081,64,26.081,64s-6.972,0-8.711.469A2.8,2.8,0,0,0,15.4,66.453a31.544,31.544,0,0,0,0,10.8,2.76,2.76,0,0,0,1.971,1.952c1.739.469,8.711.469,8.711.469s6.972,0,8.711-.469a2.76,2.76,0,0,0,1.971-1.952,31.544,31.544,0,0,0,0-10.8ZM23.8,75.169v-6.63l5.827,3.315Z"
          transform="translate(-14.933 -64)" fill="#243f71"/>
</svg>
