<svg xmlns="http://www.w3.org/2000/svg" width="18.51" height="18.506" viewBox="0 0 18.51 18.506">
    <path class="a"
          d="M18.48,39.983a1.191,1.191,0,0,0-.516-.764,4.989,4.989,0,0,0-1.033-.112c-.831-.037-.921-.054-1.186-.207-.417-.244-.529-.508-.533-1.219a5.333,5.333,0,0,0-1.69-3.772,6.3,6.3,0,0,0-2.706-1.673,14.454,14.454,0,0,0-2.616-.12c-2.868-.033-3.5.025-4.479.413A5.872,5.872,0,0,0,.163,36.686a28.97,28.97,0,0,0-.128,4.293c-.025,4.194,0,4.81.264,5.64a5.809,5.809,0,0,0,4.314,3.9c.612.112,8.152.136,8.925.033a5.534,5.534,0,0,0,3.384-1.731,5.657,5.657,0,0,0,1.454-2.566A46.894,46.894,0,0,0,18.48,39.983ZM5.171,37.355c.322-.326.413-.339,2.43-.339,1.814,0,1.876,0,2.14.14a.91.91,0,0,1,.554.9.976.976,0,0,1-.508.893c-.19.12-.3.128-2.078.136a20.2,20.2,0,0,1-2.1-.05A1.052,1.052,0,0,1,5.171,37.355ZM13.1,45.611l-.616.1-3.2.037a21.449,21.449,0,0,1-3.756-.083,1.149,1.149,0,0,1-.616-.8,1.166,1.166,0,0,1,.339-.926c.293-.264.421-.273,4.02-.277,3.7,0,3.682,0,4.033.322a1.02,1.02,0,0,1-.2,1.628Z"
          transform="translate(-0.027 -32.108)"/>
</svg>