<?xml version="1.0" encoding="utf-8"?>
<!-- Generator: Adobe Illustrator 16.0.0, SVG Export Plug-In . SVG Version: 6.00 Build 0)  -->
<!DOCTYPE svg PUBLIC "-//W3C//DTD SVG 1.1//EN" "http://www.w3.org/Graphics/SVG/1.1/DTD/svg11.dtd">
<svg version="1.1" id="Layer_1" xmlns="http://www.w3.org/2000/svg" x="0px"
     y="0px"
     viewBox="0 0 996 1000" xml:space="preserve">
<path d="M0,685V316c0-86.667,31-161,93-223S229.333,0,316,0h221c43.333,5.333,89.5,24.333,138.5,57s83.833,71,104.5,115
	c0.667,1.333,2.333,4.5,5,9.5s4.333,8.333,5,10s1.833,4.833,3.5,9.5s3,8.833,4,12.5s2.167,8.833,3.5,15.5s2.667,14,4,22
	s2.667,17.667,4,29c6,46.667,14.667,75,26,85c9.333,8.667,33,13.5,71,14.5s59.667,3.5,65,7.5l14,11l8,17l3,14l-2,256
	c-0.667,86.667-31.667,160.833-93,222.5S765.667,1000,679,1000H316c-86.667,0-161-30.833-223-92.5S0,771.667,0,685z M259,680
	c0,16.667,6,30.833,18,42.5s26.333,17.5,43,17.5h356c16.667,0,30.833-5.833,42.5-17.5S736,696.667,736,680s-5.833-30.833-17.5-42.5
	S692.667,620,676,620H320c-16.667,0-31,5.833-43,17.5S259,663.333,259,680z M259,318c0,16.667,6,31,18,43s26.333,18,43,18h175
	c16.667,0,30.833-6,42.5-18s17.5-26.333,17.5-43s-5.833-30.833-17.5-42.5S511.667,258,495,258H320c-16.667,0-31,5.833-43,17.5
	S259,301.333,259,318z"/>
</svg>
