<svg xmlns="http://www.w3.org/2000/svg" width="259.729" height="40.463" viewBox="0 0 259.729 40.463">
    <defs>
        <style>
            .a{fill:#00386e;}.a,.b,.d,.e,.f{fill-rule:evenodd;}.b{fill:#fff;}.c{fill:none;stroke:#8d2e20;stroke-miterlimit:22.926;stroke-width:0.5px;}.d{fill:#cc8774;}.e{fill:#8d2e20;}.f,.g{fill:#942617;}
        </style>
    </defs>
    <g transform="translate(0 0.463)">
        <g transform="translate(0 -1)">
            <path class="a" d="M16.741,27.262l8.817-3.539V38.87H16.741V27.98l-2.456.944v-.77Z"/>
            <path class="a" d="M16.86,8.477c-15.36,10.011-6.045,27.532.5,30.393H6.5c-9.762-9.3-7.5-25.626,0-30.393Z"/>
            <path class="a" d="M36.635,27.262l-8.818-3.539V38.87h8.818V27.98l2.455.944v-.77Z"/>
            <path class="a"
                  d="M36.515,8.477c15.36,10.011,6.043,27.532-.506,30.393H46.873c9.763-9.3,7.5-25.626,0-30.393Z"/>
            <path class="b"
                  d="M16.591,24.264l-.12-8.815.317.1,0-1.167,2.745,1.06,3.193-5.013,1.384.815L26.16,8.188V4.658L28.349,1,30.2,3.686v9.207l3.194,1.74v1.125l1.354.664v1.535l1.2.614v1.995l1.355.664v3.193l-10.624-4.2S16.513,24.187,16.591,24.264Z"/>
            <path class="c"
                  d="M16.591,24.264l-.12-8.815.317.1,0-1.167,2.745,1.06,3.193-5.013,1.384.815L26.16,8.188V4.658L28.349,1,30.2,3.686v9.207l3.194,1.74v1.125l1.354.664v1.535l1.2.614v1.995l1.355.664v3.193l-10.624-4.2S16.513,24.187,16.591,24.264Z"/>
            <path class="d" d="M27.667,3.382l-.92,1.509V8.216l.92.563Z"/>
            <path class="e" d="M36.762,21.616l-.817-.409v2.916l.817.267Z"/>
            <path class="e" d="M35.408,18.932l-.665-.282v4.73l.665.4Z"/>
            <path class="e" d="M34.233,16.86,33.39,16.5v6.292l.843.451Z"/>
            <path class="e" d="M32.725,14.993,30.2,13.663V21.6l2.529,1.13Z"/>
            <path class="e" d="M29.583,3.894,28.332,2.313V9.98l-1.584-.972V20.739l1.126-.053,1.71.863Z"/>
            <path class="e" d="M24.474,21.5V12.214l-1.252-.7V22.138Z"/>
            <path class="d" d="M22.609,11.778l-3.128,5.075.752.339v5.886l2.376-.814S22.662,11.691,22.609,11.778Z"/>
            <path class="e" d="M19.7,17.55l-2.5-1.074.085,8.019,1.851-.816.569-.316Z"/>
            <path class="d" d="M25.036,11.821l-.333-.23L26.16,9.443V20.783l-.536.1-.588.2Z"/>
            <path class="e" d="M19.25,15.943l-1.672-.707v.825l1.275.521Z"/>
            <path class="e" d="M26.681,20.056l12.4,4.96v.728l-12.4-4.957-12.4,4.957v-.728Z"/>
            <path class="f"
                  d="M243.024,25.715h-3.481l3.267-9.964h.053l.161.423,3.477,9.541Zm6.114-16.394h-7.962L231.37,37.894h4.113l2.795-8.331h9.49l3.107,8.331h8.854Z"/>
            <path class="f"
                  d="M219.883,27.191a12.983,12.983,0,0,1-1.479,3.636,7.88,7.88,0,0,1-2.584,2.534,3.8,3.8,0,0,1-1.053.473,6.959,6.959,0,0,1-2.637.421h-2.9v-21.4h2.581a8.752,8.752,0,0,1,2.955.525,6.188,6.188,0,0,1,1.631.847,8.324,8.324,0,0,1,2.956,3.64,12.311,12.311,0,0,1,1,5.11A18.557,18.557,0,0,1,219.883,27.191Zm8.014-9.12a14.3,14.3,0,0,0-3.22-4.745,15.177,15.177,0,0,0-4.847-2.952,17.424,17.424,0,0,0-5.063-1,6.411,6.411,0,0,0-1-.049h-12.5V37.895h13.81a14.986,14.986,0,0,0,5.375-.9,12.579,12.579,0,0,0,4.482-2.635,11.1,11.1,0,0,0,3.006-4.266A15.155,15.155,0,0,0,229,24.14,16.258,16.258,0,0,0,227.9,18.071Z"/>
            <path class="f"
                  d="M174.332,25.661a10.776,10.776,0,0,0,3.435-1.521,8.418,8.418,0,0,0,2.37-2.694,7.643,7.643,0,0,0,.893-3.637,7.486,7.486,0,0,0-1.477-4.482,9.949,9.949,0,0,0-3.8-2.952,11.96,11.96,0,0,0-4.8-1.053H156.732V37.894h7.96V12.7h2.952a5.018,5.018,0,0,1,3.682,1.423,5.148,5.148,0,0,1,1.482,3.847,5.6,5.6,0,0,1-.9,3.373A4.085,4.085,0,0,1,169.6,22.92a13.755,13.755,0,0,1-3.589.422h-.9L176.282,41H184.3Z"/>
            <path class="f" d="M186.089,9.321h7.963V37.894h-7.963Z"/>
            <path class="f"
                  d="M90.521,15.011l-3.746,3.011a25.852,25.852,0,0,0-2.161-3.329,8.348,8.348,0,0,0-2.424-2.054,6.99,6.99,0,0,0-3.266-.679,6.094,6.094,0,0,0-3.584.946,7.671,7.671,0,0,0-2.322,2.685,14.363,14.363,0,0,0-1.156,3.69,20.774,20.774,0,0,0-.372,4.113,20.7,20.7,0,0,0,.372,4.111,13.389,13.389,0,0,0,1.156,3.642,7.061,7.061,0,0,0,2.322,2.632,6.1,6.1,0,0,0,3.584,1.005,11.984,11.984,0,0,0,3.951-.58c1.265-.371,1.9-.953,1.9-1.795V26.928h-5.8V25.239h13.5v8.641a19.935,19.935,0,0,1-3.058,2.006,20.356,20.356,0,0,1-3.429,1.478,27.333,27.333,0,0,1-3.85,1,25.76,25.76,0,0,1-4.11.317,17.185,17.185,0,0,1-6.012-1.053,14.32,14.32,0,0,1-4.851-3.166,13.759,13.759,0,0,1-3.216-4.848,16.43,16.43,0,0,1-1.106-6.009,15.5,15.5,0,0,1,1.95-7.8,13.657,13.657,0,0,1,5.433-5.376,16.3,16.3,0,0,1,7.8-1.95A15.028,15.028,0,0,1,85.354,10,15.818,15.818,0,0,1,90.521,15.011Z"/>
            <path class="f"
                  d="M136.17,25.715h-3.477l3.267-9.964h.051l.159.423,3.481,9.541Zm6.118-16.394h-7.964l-9.8,28.573h4.113l2.794-8.331h9.486l3.113,8.331h8.856Z"/>
            <path class="f"
                  d="M116.718,9.321h4.164V29.138a10.2,10.2,0,0,1-1.11,4.8,8.723,8.723,0,0,1-3.688,3.473,14.906,14.906,0,0,1-6.586,1.269,13.115,13.115,0,0,1-4.69-.789,9.951,9.951,0,0,1-3.59-2.215,8.615,8.615,0,0,1-2.209-3.165,9.281,9.281,0,0,1-.743-3.745V9.321h7.964V28.454a5.472,5.472,0,0,0,1.374,4.06,5.882,5.882,0,0,0,7.845.056,6.169,6.169,0,0,0,1.268-4.115Z"/>
            <path class="f"
                  d="M232.887,14.431a2.477,2.477,0,1,1,2.5-2.48A2.489,2.489,0,0,1,232.887,14.431Zm0-5.277a2.8,2.8,0,1,0,2.821,2.8A2.815,2.815,0,0,0,232.887,9.153Z"/>
            <path class="g"
                  d="M232.278,13.441h-.945V10.1h1.692a1.425,1.425,0,0,1,.574.122,1.207,1.207,0,0,1,.442.347.86.86,0,0,1,.176.526.772.772,0,0,1-.107.419.871.871,0,0,1-.28.32,1.065,1.065,0,0,1-.408.172l1.025,1.79h-1.1l-1.009-2.059h.1a1.726,1.726,0,0,0,.428-.042.522.522,0,0,0,.276-.188.664.664,0,0,0,.107-.4.594.594,0,0,0-.619-.619h-.35Z"/>
        </g>
    </g>
</svg>